# xmcd CD database file
#
# Track frame offsets:
#	150
#	17925
#	34200
#	53700
#	73650
#	94350
#	115875
#	135825
#	160500
#	194700
#	235125
#	257775
#
# Disc length: 3796 seconds
#
# Revision: 1
# Processed by: cddbd v1.5.1PL2 Copyright (c) Steve Scherf et al.
# Submitted via: freeDBTagger 0.8.2.1
#
DISCID=a40ed20c
DTITLE=都はるみ - ダブルファンタジー - ベスト・セレクション [CD2]
DYEAR=1992
DGENRE=misc
TTITLE0=ふたりの大阪（with 宮崎雅)
TTITLE1=東京セレナーデ
TTITLE2=浪花恋しぐれ(with 岡千秋)
TTITLE3=道頓堀川
TTITLE4=夫婦坂
TTITLE5=ふたりのラブソング(with 五木ひろし)
TTITLE6=小樽運河
TTITLE7=千年の古都
TTITLE8=飛べない鳥へのレクイエム
TTITLE9=王将一代 小春しぐれ☆LIVE
TTITLE10=つくしんぼ
TTITLE11=天女伝説
EXTD=
EXTT0=
EXTT1=
EXTT2=
EXTT3=
EXTT4=
EXTT5=
EXTT6=
EXTT7=
EXTT8=
EXTT9=
EXTT10=
EXTT11=
PLAYORDER=
